<svg width="24" height="27" viewBox="0 0 24 27" fill="none" xmlns="http://www.w3.org/2000/svg">
<rect x="0.0507812" y="0.625488" width="23.8099" height="25.9745" rx="2.59745" fill="url(#paint0_linear_13_3008)"/>
<path d="M9.01239 7.11914H14.467C16.545 7.11914 18.2333 8.80748 18.2333 10.8854V16.3401C18.2333 17.339 17.8365 18.2969 17.1302 19.0033C16.4239 19.7096 15.4659 20.1064 14.467 20.1064H9.01239C6.93443 20.1064 5.24609 18.418 5.24609 16.3401V10.8854C5.24609 9.88655 5.6429 8.92858 6.34922 8.22226C7.05553 7.51595 8.01351 7.11914 9.01239 7.11914ZM8.88252 8.41786C8.26252 8.41786 7.66792 8.66416 7.22951 9.10256C6.79111 9.54097 6.54482 10.1356 6.54482 10.7556V16.4699C6.54482 17.7622 7.59029 18.8077 8.88252 18.8077H14.5969C15.2169 18.8077 15.8115 18.5614 16.2499 18.123C16.6883 17.6846 16.9346 17.0899 16.9346 16.4699V10.7556C16.9346 9.46334 15.8891 8.41786 14.5969 8.41786H8.88252ZM15.1489 9.39191C15.3641 9.39191 15.5706 9.47742 15.7228 9.62965C15.875 9.78187 15.9606 9.98833 15.9606 10.2036C15.9606 10.4189 15.875 10.6253 15.7228 10.7776C15.5706 10.9298 15.3641 11.0153 15.1489 11.0153C14.9336 11.0153 14.7271 10.9298 14.5749 10.7776C14.4227 10.6253 14.3372 10.4189 14.3372 10.2036C14.3372 9.98833 14.4227 9.78187 14.5749 9.62965C14.7271 9.47742 14.9336 9.39191 15.1489 9.39191ZM11.7397 10.3659C12.6008 10.3659 13.4267 10.708 14.0356 11.3169C14.6444 11.9258 14.9865 12.7517 14.9865 13.6128C14.9865 14.4739 14.6444 15.2997 14.0356 15.9086C13.4267 16.5175 12.6008 16.8596 11.7397 16.8596C10.8786 16.8596 10.0528 16.5175 9.44387 15.9086C8.83498 15.2997 8.4929 14.4739 8.4929 13.6128C8.4929 12.7517 8.83498 11.9258 9.44387 11.3169C10.0528 10.708 10.8786 10.3659 11.7397 10.3659ZM11.7397 11.6647C11.223 11.6647 10.7275 11.8699 10.3622 12.2353C9.99687 12.6006 9.79163 13.0961 9.79163 13.6128C9.79163 14.1294 9.99687 14.6249 10.3622 14.9903C10.7275 15.3556 11.223 15.5608 11.7397 15.5608C12.2564 15.5608 12.7519 15.3556 13.1172 14.9903C13.4826 14.6249 13.6878 14.1294 13.6878 13.6128C13.6878 13.0961 13.4826 12.6006 13.1172 12.2353C12.7519 11.8699 12.2564 11.6647 11.7397 11.6647Z" fill="white"/>
<defs>
<linearGradient id="paint0_linear_13_3008" x1="21.4797" y1="0.625489" x2="0.0507825" y2="26.6" gradientUnits="userSpaceOnUse">
<stop offset="0.0257903" stop-color="#9221B5"/>
<stop offset="0.947383" stop-color="#FE5C1D"/>
</linearGradient>
</defs>
</svg>
