<svg width="18" height="18" viewBox="0 0 18 18" fill="none" xmlns="http://www.w3.org/2000/svg">
<path fill-rule="evenodd" clip-rule="evenodd" d="M14.4962 2.32963C14.6609 2.23045 14.8576 2.1989 15.045 2.2416C15.2325 2.2843 15.3961 2.39793 15.5016 2.55866L16.2377 3.68148C16.3339 3.82823 16.3751 4.00426 16.354 4.17843C16.3329 4.35261 16.2509 4.51372 16.1225 4.63328L16.1202 4.63625L16.1098 4.64592L16.0674 4.68533L15.9001 4.8452C14.9743 5.74316 14.0767 6.66962 13.2083 7.62325C11.5747 9.41976 9.63464 11.771 8.3289 14.0523C7.96454 14.6888 7.07446 14.8257 6.54651 14.2761L1.72433 9.26584C1.65523 9.19401 1.60127 9.10902 1.56566 9.01592C1.53006 8.92282 1.51353 8.82352 1.51707 8.72391C1.52061 8.6243 1.54414 8.52641 1.58626 8.43607C1.62838 8.34574 1.68823 8.26479 1.76226 8.19804L3.21969 6.88338C3.34777 6.76791 3.512 6.70054 3.68427 6.69281C3.85654 6.68508 4.02614 6.73746 4.16405 6.84099L6.62459 8.68584C10.4675 4.89576 12.6477 3.4413 14.4962 2.32963Z" fill="#069903"/>
</svg>
