<svg width="24" height="27" viewBox="0 0 24 27" fill="none" xmlns="http://www.w3.org/2000/svg">
<rect x="0.189941" y="0.625488" width="23.8099" height="25.9745" rx="2.59745" fill="#3E58EE"/>
<path d="M5.81738 8.04935C5.81738 7.53554 6.24434 7.11914 6.77113 7.11914H17.8509C18.3777 7.11914 18.8046 7.53554 18.8046 8.04935V19.1762C18.8046 19.69 18.3777 20.1064 17.8509 20.1064H6.77113C6.24434 20.1064 5.81738 19.69 5.81738 19.1762V8.04935ZM9.82963 17.9911V12.1265H7.88073V17.9911H9.82963ZM8.85558 11.3254C9.53498 11.3254 9.95787 10.8757 9.95787 10.3124C9.9457 9.73688 9.53579 9.29937 8.86857 9.29937C8.20135 9.29937 7.76547 9.73769 7.76547 10.3124C7.76547 10.8757 8.18836 11.3254 8.8426 11.3254H8.85558ZM12.8394 17.9911V14.7159C12.8394 14.5405 12.8524 14.3652 12.9044 14.2402C13.0448 13.8904 13.3654 13.5275 13.9044 13.5275C14.6097 13.5275 14.8914 14.0649 14.8914 14.8538V17.9911H16.8403V14.6274C16.8403 12.8254 15.8792 11.9877 14.5968 11.9877C13.5626 11.9877 13.0992 12.5559 12.8394 12.9561V12.9764H12.8264C12.8307 12.9696 12.8351 12.9628 12.8394 12.9561V12.1265H10.8913C10.9157 12.6769 10.8913 17.9911 10.8913 17.9911H12.8394Z" fill="white"/>
</svg>
