<svg width="26" height="25" viewBox="0 0 26 25" fill="none" xmlns="http://www.w3.org/2000/svg">
<path d="M19.6442 11.4584C20.2736 17.0573 22.749 18.75 22.749 18.75H3.24902C3.24902 18.75 6.49902 16.5281 6.49902 8.75002C6.49902 6.98232 7.18369 5.28648 8.40244 4.03648C9.62227 2.78648 11.2765 2.08336 12.999 2.08336C13.3641 2.08336 13.727 2.11461 14.0824 2.17711M14.8732 21.875C14.6829 22.191 14.4097 22.4533 14.0807 22.6357C13.7518 22.818 13.3787 22.914 12.999 22.914C12.6193 22.914 12.2463 22.818 11.9173 22.6357C11.5884 22.4533 11.3151 22.191 11.1249 21.875M20.5824 8.33336C21.4443 8.33336 22.271 8.00412 22.8805 7.41807C23.4899 6.83202 23.8324 6.03716 23.8324 5.20836C23.8324 4.37956 23.4899 3.5847 22.8805 2.99865C22.271 2.4126 21.4443 2.08336 20.5824 2.08336C19.7204 2.08336 18.8938 2.4126 18.2843 2.99865C17.6748 3.5847 17.3324 4.37956 17.3324 5.20836C17.3324 6.03716 17.6748 6.83202 18.2843 7.41807C18.8938 8.00412 19.7204 8.33336 20.5824 8.33336Z" stroke="white" stroke-width="1.1662" stroke-linecap="round" stroke-linejoin="round"/>
</svg>
