<svg width="40" height="39" viewBox="0 0 40 39" fill="none" xmlns="http://www.w3.org/2000/svg">
<rect x="0.856445" width="39.1189" height="38.1159" rx="19.0579" fill="#3C3C3C"/>
<path d="M8.82808 24.0301L13.1673 14.2002H15.9056L20.2588 24.0301H17.366L13.9677 15.5623H15.063L11.6647 24.0301H8.82808ZM11.2013 22.1203L11.9175 20.07H16.7201L17.4362 22.1203H11.2013ZM21.1875 24.0301V14.2002H25.8356C26.9216 14.2002 27.8765 14.4015 28.7004 14.804C29.5242 15.2066 30.1655 15.773 30.6242 16.5032C31.0923 17.2334 31.3263 18.1041 31.3263 19.1151C31.3263 20.1169 31.0923 20.9875 30.6242 21.7271C30.1655 22.4573 29.5242 23.0237 28.7004 23.4263C27.8765 23.8288 26.9216 24.0301 25.8356 24.0301H21.1875ZM23.968 21.8113H25.7233C26.285 21.8113 26.7718 21.7084 27.1837 21.5024C27.605 21.2871 27.9327 20.9781 28.1667 20.5756C28.4008 20.1637 28.5178 19.6769 28.5178 19.1151C28.5178 18.5441 28.4008 18.0573 28.1667 17.6547C27.9327 17.2521 27.605 16.9479 27.1837 16.7419C26.7718 16.5266 26.285 16.4189 25.7233 16.4189H23.968V21.8113Z" fill="white"/>
</svg>
